<?xml version="1.0" encoding="utf-8"?>
<!-- Generator: Adobe Illustrator 25.3.1, SVG Export Plug-In . SVG Version: 6.00 Build 0)  -->
<svg version="1.1" id="Layer_1" xmlns="http://www.w3.org/2000/svg" xmlns:xlink="http://www.w3.org/1999/xlink" x="0px" y="0px"
	 viewBox="0 0 110 110" style="enable-background:new 0 0 110 110;" xml:space="preserve">
<style type="text/css">
	.st0{stroke:#FFFFFF;stroke-width:6;stroke-miterlimit:10;}
	.st1{fill:#FFFFFF;}
	.st2{fill:#478CBF;}
	.st3{display:none;}
	.st4{display:inline;fill:#FFFFFF;}
	.st5{display:inline;}
	.st6{fill:#414042;}
	.st7{display:none;enable-background:new    ;}
	.st8{font-family:'Rockwell-ExtraBold';}
	.st9{font-size:8.9581px;}
</style>
<g id="svg2661" sodipodi:docname="gear 7.svg" sodipodi:version="0.32" xmlns:cc="http://creativecommons.org/ns#" xmlns:dc="http://purl.org/dc/elements/1.1/" xmlns:inkscape="http://www.inkscape.org/namespaces/inkscape" xmlns:rdf="http://www.w3.org/1999/02/22-rdf-syntax-ns#" xmlns:sodipodi="http://sodipodi.sourceforge.net/DTD/sodipodi-0.dtd" xmlns:svg="http://www.w3.org/2000/svg">
	<defs>
		
			<inkscape:perspective  id="perspective2669" inkscape:persp3d-origin="372.04724 : 350.78739 : 1" inkscape:vp_x="0 : 526.18109 : 1" inkscape:vp_y="0 : 1000 : 0" inkscape:vp_z="744.09448 : 526.18109 : 1" sodipodi:type="inkscape:persp3d">
			</inkscape:perspective>
	</defs>
	
		<sodipodi:namedview  bordercolor="#666666" borderopacity="1.0" gridtolerance="10000" guidetolerance="10" id="base" inkscape:current-layer="layer1" inkscape:cx="375" inkscape:cy="520" inkscape:document-units="px" inkscape:pageopacity="0.0" inkscape:pageshadow="2" inkscape:window-height="718" inkscape:window-width="672" inkscape:window-x="600" inkscape:window-y="249" inkscape:zoom="0.35" objecttolerance="10" pagecolor="#ffffff" showgrid="false">
		</sodipodi:namedview>
	<g id="layer1" transform="translate(-559.28571,-488.79075)" inkscape:groupmode="layer" inkscape:label="Layer 1">
		<g id="g27" transform="translate(491.78471,169.30575)">
			<path id="path29" class="st0" d="M171.2,367.7l-8.4-2.8c-1-4.4-2.7-8.5-5-12.2l4-8c-2.7-3.6-5.9-6.8-9.5-9.5l-8,4
				c-3.7-2.3-7.8-4-12.2-5l-2.8-8.4c-2.2-0.3-4.5-0.5-6.7-0.5c-2.3,0-4.5,0.2-6.7,0.5l-2.8,8.4c-4.4,1-8.5,2.7-12.2,5l-8-4
				c-3.6,2.7-6.8,5.9-9.5,9.5l4,8c-2.3,3.7-4,7.8-5,12.2l-8.4,2.8c-0.3,2.2-0.5,4.5-0.5,6.7s0.2,4.5,0.5,6.7l8.4,2.8
				c1,4.4,2.7,8.5,5,12.2l-4,8c2.7,3.6,5.9,6.8,9.5,9.5l8-4c3.7,2.3,7.8,4,12.2,5l2.8,8.4c2.2,0.3,4.5,0.5,6.7,0.5
				c2.3,0,4.5-0.2,6.7-0.5l2.8-8.4c4.4-1,8.5-2.7,12.2-5l8,4c3.6-2.7,6.8-5.9,9.5-9.5l-4-8c2.3-3.7,4-7.8,5-12.2l8.4-2.8
				c0.3-2.2,0.5-4.5,0.5-6.7S171.5,370,171.2,367.7z M122.5,408.1c-18.6,0-33.6-15-33.6-33.6s15-33.6,33.6-33.6s33.6,15,33.6,33.6
				C156.1,393,141.1,408.1,122.5,408.1z"/>
		</g>
	</g>
</g>
<g id="Layer_3_1_">
	<ellipse cx="55.1" cy="55.1" rx="37.6" ry="37.1"/>
</g>
<g id="Layer_1_2_">
	<g id="Layer_1_1_">
		<path class="st1" d="M79.1,63.1L79,62.6l-8.9,0.9c-0.7,0.1-1.3,0.6-1.3,1.3l-0.2,3.5l-6.9,0.5l-0.5-3.2c-0.1-0.7-0.7-1.2-1.4-1.2
			h-9.4c-0.7,0-1.3,0.5-1.4,1.2l-0.5,3.2l-6.9-0.5l-0.2-3.5c0-0.7-0.6-1.3-1.3-1.3L31,62.6l-0.1,0.5V65l7.6,1.2l0.2,3.5
			c0.1,0.7,0.6,1.3,1.3,1.3l9.5,0.7c0.8,0,1.4-0.5,1.5-1.2l0.5-3.3h6.9l0.5,3.3c0.1,0.7,0.8,1.3,1.5,1.2l9.5-0.7
			c0.7-0.1,1.3-0.6,1.3-1.3l0.2-3.5L79,65L79.1,63.1z"/>
		<path class="st1" d="M49.4,26.1c-0.1,0-0.3,0-0.4,0c-2.6,0.6-5.2,1.4-7.7,2.6c-0.6,0.3-0.9,0.9-0.9,1.5c0,1.7,0.2,3.4,0.4,5.1
			c-0.6,0.4-1.3,0.7-2,1.3c-0.5,0.4-1.1,0.9-1.6,1.3c-1-0.6-1.8-1.1-2.4-1.4c-0.7-0.5-1-0.8-1.6-0.9c-0.5-0.1-1.3-0.4-2,0.4
			c-1.9,2-3.7,4.2-5.1,6.7c-0.3,0.5-0.3,1.2,0,1.7c1,1.6,2,3.1,3.1,4.5V67c0,4.9,3.3,8.7,8,11c4.7,2.2,10.9,3.3,17.8,3.3l0,0
			c6.8,0,13.1-1.1,17.8-3.3c4.7-2.2,8-6,8-11V49.6c1.1-1.6,2-3.2,3.1-4.9c0.3-0.5,0.3-1.2,0-1.7c-1.5-2.5-3.3-4.7-5.1-6.7
			c-0.5-0.5-1.3-0.7-2-0.4c-1.4,0.7-2.7,1.5-4,2.3c-0.6-0.5-1.1-1-1.6-1.3l0,0c-0.7-0.6-1.4-0.9-2-1.3c0.2-1.7,0.3-3.4,0.4-5.1
			c0-0.6-0.3-1.2-0.9-1.5c-2.5-1.3-5.1-2.1-7.7-2.6c-0.7-0.2-1.4,0.2-1.8,0.8c-0.8,1.4-1.6,2.9-2.3,4.4c-0.6-0.1-1.3-0.1-1.9-0.2h0
			c-0.6,0-1.2,0.1-1.9,0.2c-0.7-1.4-1.4-2.9-2.2-4.2C50.7,26.5,50.1,26.1,49.4,26.1L49.4,26.1z"/>
		<path class="st2" d="M49.4,27.7c-2.5,0.6-5,1.3-7.3,2.5c0.1,2.1,0.2,4,0.5,6c-0.9,0.6-1.9,1.1-2.7,1.8c-0.9,0.7-1.7,1.3-2.5,2.1
			c-1.6-1-3.2-2-4.9-2.8c-1.8,2-3.5,4.1-4.9,6.4c1,1.7,2.1,3.3,3.3,4.8l0,0V63H31l8.9,0.9c0.5,0,0.8,0.4,0.9,0.9l0.3,3.9l7.8,0.6
			l0.5-3.6c0.1-0.5,0.5-0.8,0.9-0.8h9.4c0.5,0,0.9,0.3,0.9,0.8l0.5,3.6l7.8-0.6l0.3-3.9c0-0.5,0.4-0.8,0.9-0.9L79,63h0.1v-1.2l0,0
			V48.5l0,0c1.2-1.5,2.3-3.1,3.3-4.8c-1.4-2.4-3.1-4.5-4.9-6.4c-1.7,0.9-3.3,1.8-4.9,2.8c-0.8-0.8-1.6-1.4-2.5-2.1
			c-0.8-0.7-1.8-1.2-2.7-1.8c0.3-2,0.4-4,0.5-6c-2.3-1.2-4.8-1.9-7.3-2.5c-1,1.7-1.9,3.5-2.7,5.3c-0.9-0.2-1.9-0.2-2.8-0.2l0,0
			c-1,0-1.9,0.1-2.9,0.2C51.3,31.2,50.4,29.4,49.4,27.7L49.4,27.7z M30.9,64.9c0,0.9,0,1.8,0,2c0,8.5,10.7,12.5,24.1,12.6l0,0
			c13.3,0,24.1-4.1,24.1-12.6c0-0.2,0-1.1,0-2l-8,0.8l-0.3,4c0,0.5-0.4,0.9-0.9,0.9l-9.5,0.7h-0.1c-0.5,0-0.9-0.3-0.9-0.8l-0.5-3.7
			h-7.7l-0.5,3.7c-0.1,0.5-0.5,0.9-1,0.8l-9.5-0.7c-0.5,0-0.9-0.4-0.9-0.9l-0.3-4L30.9,64.9z"/>
		<g id="Layer_3" class="st3">
			<path class="st4" d="M32.5,37.2"/>
			<g id="layer1_2_" transform="translate(-559.28571,-488.79075)" class="st5">
				<g id="g27_2_" transform="translate(491.78471,169.30575)">
					<path id="path29_2_" d="M119.1,372.6l-1.6-0.5c-0.2-0.8-0.5-1.6-1-2.3l0.8-1.5c-0.5-0.7-1.1-1.3-1.8-1.8l-1.5,0.8
						c-0.7-0.4-1.5-0.8-2.3-1l-0.5-1.6c-0.4-0.1-0.8-0.1-1.3-0.1s-0.9,0-1.3,0.1l-0.5,1.6c-0.8,0.2-1.6,0.5-2.3,1l-1.5-0.8
						c-0.7,0.5-1.3,1.1-1.8,1.8l0.8,1.5c-0.4,0.7-0.8,1.5-1,2.3l-1.6,0.5c-0.1,0.4-0.1,0.8-0.1,1.3c0,0.4,0,0.9,0.1,1.3l1.6,0.5
						c0.2,0.8,0.5,1.6,1,2.3l-0.8,1.5c0.5,0.7,1.1,1.3,1.8,1.8l1.5-0.8c0.7,0.4,1.5,0.8,2.3,1l0.5,1.6c0.4,0.1,0.8,0.1,1.3,0.1
						s0.9,0,1.3-0.1l0.5-1.6c0.8-0.2,1.6-0.5,2.3-1l1.5,0.8c0.7-0.5,1.3-1.1,1.8-1.8l-0.8-1.5c0.4-0.7,0.8-1.5,1-2.3l1.6-0.5
						c0.1-0.4,0.1-0.8,0.1-1.3S119.2,373,119.1,372.6z M109.9,380.2c-3.5,0-6.4-2.9-6.4-6.4s2.9-6.4,6.4-6.4s6.4,2.9,6.4,6.4
						C116.2,377.4,113.4,380.2,109.9,380.2z"/>
				</g>
			</g>
		</g>
		<path class="st1" d="M47.7,54.4c0,3-2.5,5.3-5.4,5.3S37,57.3,37,54.4c0-3,2.4-5.4,5.4-5.4C45.3,49,47.7,51.4,47.7,54.4 M55,60.3
			c-1,0-1.7-0.7-1.7-1.6v-4.9c0-0.9,0.8-1.6,1.7-1.6c1,0,1.7,0.7,1.7,1.6v4.9C56.7,59.6,55.9,60.3,55,60.3 M62.3,54.4
			c0,3,2.4,5.4,5.4,5.4l0,0c3,0,5.4-2.4,5.4-5.4l0,0c0-3-2.4-5.4-5.4-5.4S62.3,51.4,62.3,54.4"/>
		<path class="st6" d="M42.9,51.2c-2,0-3.6,1.6-3.6,3.6s1.6,3.6,3.6,3.6s3.5-1.7,3.5-3.6C46.3,52.7,44.8,51.2,42.9,51.2z M67.1,51.2
			c-2,0-3.6,1.6-3.6,3.6s1.6,3.6,3.6,3.6l0,0c2,0,3.5-1.6,3.5-3.6C70.6,52.7,69.1,51.2,67.1,51.2z"/>
		<path class="st1" d="M36,44.7"/>
		<g id="layer1_1_" transform="translate(-559.28571,-488.79075)" class="st3">
			<g id="g27_1_" transform="translate(491.78471,169.30575)" class="st5">
				<path id="path29_1_" d="M144.4,372.6l-1.6-0.5c-0.2-0.8-0.5-1.6-1-2.3l0.8-1.5c-0.5-0.7-1.1-1.3-1.8-1.8l-1.5,0.8
					c-0.7-0.4-1.5-0.8-2.3-1l-0.5-1.6c-0.4-0.1-0.8-0.1-1.3-0.1s-0.9,0-1.3,0.1l-0.5,1.6c-0.8,0.2-1.6,0.5-2.3,1l-1.5-0.8
					c-0.7,0.5-1.3,1.1-1.8,1.8l0.8,1.5c-0.4,0.7-0.8,1.5-1,2.3l-1.6,0.5c-0.1,0.4-0.1,0.8-0.1,1.3c0,0.4,0,0.9,0.1,1.3l1.6,0.5
					c0.2,0.8,0.5,1.6,1,2.3l-0.8,1.5c0.5,0.7,1.1,1.3,1.8,1.8l1.5-0.8c0.7,0.4,1.5,0.8,2.3,1l0.5,1.6c0.4,0.1,0.8,0.1,1.3,0.1
					s0.9,0,1.3-0.1l0.5-1.6c0.8-0.2,1.6-0.5,2.3-1l1.5,0.8c0.7-0.5,1.3-1.1,1.8-1.8l-0.8-1.5c0.4-0.7,0.8-1.5,1-2.3l1.6-0.5
					c0.1-0.4,0.1-0.8,0.1-1.3C144.5,373.5,144.4,373,144.4,372.6z M135.1,380.3c-3.5,0-6.4-2.9-6.4-6.4s2.9-6.4,6.4-6.4
					s6.4,2.9,6.4,6.4S138.7,380.3,135.1,380.3z"/>
			</g>
		</g>
		<text transform="matrix(1 0 0 1 47.3361 43.3632)" class="st7 st8 st9">NN</text>
	</g>
</g>
</svg>
